<?xml version="1.0" encoding="UTF-8" standalone="no"?>
<!DOCTYPE svg PUBLIC "-//W3C//DTD SVG 1.1//EN" "http://www.w3.org/Graphics/SVG/1.1/DTD/svg11.dtd">
<svg width="100%" height="100%" viewBox="0 0 1949 552" version="1.1" xmlns="http://www.w3.org/2000/svg" xmlns:xlink="http://www.w3.org/1999/xlink" xml:space="preserve" xmlns:serif="http://www.serif.com/" style="fill-rule:evenodd;clip-rule:evenodd;stroke-linecap:round;stroke-linejoin:round;stroke-miterlimit:1.5;">
    <rect x="0" y="0" width="1949" height="552" style="fill:white;"/>
    <g transform="matrix(4.0041,0,0,4.0041,390.892,-1676.79)">
        <g>
            <g transform="matrix(1,0,0,1,-166.277,7.69873)">
                <g>
                    <path d="M498.831,416L443.405,448L443.405,512L498.831,544L554.256,512L554.256,481L527,463.736L527,432.264L498.831,416Z" style="fill:rgb(116,96,225);fill-opacity:0;stroke:rgb(116,96,225);stroke-width:1.41px;"/>
                </g>
            </g>
            <g transform="matrix(1,0,0,1,-166.277,7.69873)">
                <g>
                    <path d="M498.831,416L443.405,448L443.405,512L498.831,544L554.256,512L554.256,481L527,463.736L527,432.264L498.831,416Z" style="fill:rgb(116,96,225);fill-opacity:0;stroke:rgb(116,96,225);stroke-width:1.41px;"/>
                </g>
            </g>
            <g transform="matrix(1,0,0,1,-166.277,7.69873)">
                <path d="M471,496.068L498.831,512" style="fill:none;stroke:rgb(116,96,225);stroke-width:1.41px;stroke-linejoin:miter;"/>
            </g>
            <g transform="matrix(1,0,0,1,-166.277,7.69873)">
                <path d="M471,463.932L471,496.068L527,463.736L554.256,481L498.831,513L498.831,544" style="fill:none;stroke:rgb(116,96,225);stroke-width:1.41px;"/>
            </g>
            <g transform="matrix(1,0,0,1,-166.277,7.69873)">
                <path d="M443.405,448L470.605,463.704L526.426,431.932" style="fill:none;stroke:rgb(116,96,225);stroke-width:1.41px;"/>
            </g>
        </g>
    </g>
    <g transform="matrix(11.4091,0,0,9.59217,-8118.2,-4607.31)">
        <path d="M711.557,529.86L711.557,486.91L720.157,486.91L720.157,522.56L729.007,522.56L729.007,529.86L711.557,529.86Z" style="fill:none;fill-rule:nonzero;stroke:rgb(192,191,244);stroke-opacity:0.5;stroke-width:0.22px;stroke-linecap:butt;stroke-miterlimit:2;"/>
        <path d="M741.357,530.26C737.824,530.26 735.199,529.26 733.482,527.26C731.765,525.26 730.907,522.294 730.907,518.36L730.907,486.91L739.257,486.91L739.257,518.01C739.257,519.377 739.39,520.444 739.657,521.21C739.924,521.977 740.49,522.36 741.357,522.36C742.224,522.36 742.79,521.985 743.057,521.235C743.324,520.485 743.457,519.41 743.457,518.01L743.457,486.91L751.807,486.91L751.807,518.36C751.807,522.294 750.949,525.26 749.232,527.26C747.515,529.26 744.89,530.26 741.357,530.26Z" style="fill:none;fill-rule:nonzero;stroke:rgb(192,191,244);stroke-opacity:0.5;stroke-width:0.22px;stroke-linecap:butt;stroke-miterlimit:2;"/>
        <path d="M765.107,530.26C761.974,530.26 759.465,529.277 757.582,527.31C755.699,525.344 754.757,522.644 754.757,519.21L754.757,499.41C754.757,495.144 755.607,491.927 757.307,489.76C759.007,487.594 761.674,486.51 765.307,486.51C768.474,486.51 771.024,487.377 772.957,489.11C774.89,490.844 775.857,493.344 775.857,496.61L775.857,504.01L767.307,504.01L767.307,497.66C767.307,496.427 767.157,495.577 766.857,495.11C766.557,494.644 766.04,494.41 765.307,494.41C764.54,494.41 764.015,494.677 763.732,495.21C763.449,495.744 763.307,496.527 763.307,497.56L763.307,519.11C763.307,520.244 763.474,521.069 763.807,521.585C764.14,522.102 764.64,522.36 765.307,522.36C766.64,522.36 767.307,521.277 767.307,519.11L767.307,511.36L775.957,511.36L775.957,519.46C775.957,526.66 772.34,530.26 765.107,530.26Z" style="fill:none;fill-rule:nonzero;stroke:rgb(192,191,244);stroke-opacity:0.5;stroke-width:0.22px;stroke-linecap:butt;stroke-miterlimit:2;"/>
        <rect x="778.407" y="486.91" width="8.3" height="42.95" style="fill:none;fill-rule:nonzero;stroke:rgb(192,191,244);stroke-opacity:0.5;stroke-width:0.22px;stroke-linecap:butt;stroke-miterlimit:2;"/>
        <path d="M789.007,529.86L793.157,486.91L807.707,486.91L811.807,529.86L803.657,529.86L803.057,522.91L797.857,522.91L797.357,529.86L789.007,529.86ZM798.507,516.06L802.407,516.06L800.507,494.21L800.107,494.21L798.507,516.06Z" style="fill:none;fill-rule:nonzero;stroke:rgb(192,191,244);stroke-opacity:0.5;stroke-width:0.22px;stroke-linecap:butt;stroke-miterlimit:2;"/>
    </g>
    <g transform="matrix(0.935788,0,0,0.935788,-222.884,11.6987)">
        <text x="234.92px" y="350.893px" style="font-family:'Inter-Regular', 'Inter', sans-serif;font-size:67.455px;fill:rgb(29,30,50);">Tin<tspan x="332.365px " y="350.893px ">y</tspan> librar<tspan x="552.216px " y="350.893px ">y</tspan> f<tspan x="631.6px " y="350.893px ">o</tspan>r tin<tspan x="794.583px " y="350.893px ">y</tspan> w<tspan x="904.724px " y="350.893px ">e</tspan>b apps</text>
    </g>
    <g transform="matrix(2.71385,0,0,2.71385,-1069.98,-306.244)">
        <text x="390.003px" y="207.361px" style="font-family:'Inter-Bold', 'Inter';font-weight:700;font-size:67.455px;fill:rgb(29,30,50);">Lucia</text>
    </g>
</svg>
