<?xml version="1.0" encoding="UTF-8" standalone="no"?>
<!DOCTYPE svg PUBLIC "-//W3C//DTD SVG 1.1//EN" "http://www.w3.org/Graphics/SVG/1.1/DTD/svg11.dtd">
<svg width="100%" height="100%" viewBox="0 0 1949 552" version="1.1" xmlns="http://www.w3.org/2000/svg" xmlns:xlink="http://www.w3.org/1999/xlink" xml:space="preserve" xmlns:serif="http://www.serif.com/" style="fill-rule:evenodd;clip-rule:evenodd;stroke-linecap:round;stroke-linejoin:round;stroke-miterlimit:1.5;">
    <rect x="0" y="0" width="1949" height="552" style="fill:white;"/>
    <g transform="matrix(4.0041,0,0,4.0041,390.892,-1676.79)">
        <g>
            <g transform="matrix(1,0,0,1,-166.277,7.69873)">
                <g>
                    <path d="M498.831,416L443.405,448L443.405,512L498.831,544L554.256,512L554.256,481L527,463.736L527,432.264L498.831,416Z" style="fill:rgb(116,96,225);fill-opacity:0;stroke:rgb(116,96,225);stroke-width:1.41px;"/>
                </g>
            </g>
            <g transform="matrix(1,0,0,1,-166.277,7.69873)">
                <g>
                    <path d="M498.831,416L443.405,448L443.405,512L498.831,544L554.256,512L554.256,481L527,463.736L527,432.264L498.831,416Z" style="fill:rgb(116,96,225);fill-opacity:0;stroke:rgb(116,96,225);stroke-width:1.41px;"/>
                </g>
            </g>
            <g transform="matrix(1,0,0,1,-166.277,7.69873)">
                <path d="M471,496.068L498.831,512" style="fill:none;stroke:rgb(116,96,225);stroke-width:1.41px;stroke-linejoin:miter;"/>
            </g>
            <g transform="matrix(1,0,0,1,-166.277,7.69873)">
                <path d="M471,463.932L471,496.068L527,463.736L554.256,481L498.831,513L498.831,544" style="fill:none;stroke:rgb(116,96,225);stroke-width:1.41px;"/>
            </g>
            <g transform="matrix(1,0,0,1,-166.277,7.69873)">
                <path d="M443.405,448L470.605,463.704L526.426,431.932" style="fill:none;stroke:rgb(116,96,225);stroke-width:1.41px;"/>
            </g>
        </g>
    </g>
    <g transform="matrix(11.4091,0,0,9.59217,-8118.2,-4607.31)">
        <path d="M711.557,529.86L711.557,486.91L720.157,486.91L720.157,522.56L729.007,522.56L729.007,529.86L711.557,529.86Z" style="fill:none;fill-rule:nonzero;stroke:rgb(192,191,244);stroke-opacity:0.5;stroke-width:0.22px;stroke-linecap:butt;stroke-miterlimit:2;"/>
        <path d="M741.357,530.26C737.824,530.26 735.199,529.26 733.482,527.26C731.765,525.26 730.907,522.294 730.907,518.36L730.907,486.91L739.257,486.91L739.257,518.01C739.257,519.377 739.39,520.444 739.657,521.21C739.924,521.977 740.49,522.36 741.357,522.36C742.224,522.36 742.79,521.985 743.057,521.235C743.324,520.485 743.457,519.41 743.457,518.01L743.457,486.91L751.807,486.91L751.807,518.36C751.807,522.294 750.949,525.26 749.232,527.26C747.515,529.26 744.89,530.26 741.357,530.26Z" style="fill:none;fill-rule:nonzero;stroke:rgb(192,191,244);stroke-opacity:0.5;stroke-width:0.22px;stroke-linecap:butt;stroke-miterlimit:2;"/>
        <path d="M765.107,530.26C761.974,530.26 759.465,529.277 757.582,527.31C755.699,525.344 754.757,522.644 754.757,519.21L754.757,499.41C754.757,495.144 755.607,491.927 757.307,489.76C759.007,487.594 761.674,486.51 765.307,486.51C768.474,486.51 771.024,487.377 772.957,489.11C774.89,490.844 775.857,493.344 775.857,496.61L775.857,504.01L767.307,504.01L767.307,497.66C767.307,496.427 767.157,495.577 766.857,495.11C766.557,494.644 766.04,494.41 765.307,494.41C764.54,494.41 764.015,494.677 763.732,495.21C763.449,495.744 763.307,496.527 763.307,497.56L763.307,519.11C763.307,520.244 763.474,521.069 763.807,521.585C764.14,522.102 764.64,522.36 765.307,522.36C766.64,522.36 767.307,521.277 767.307,519.11L767.307,511.36L775.957,511.36L775.957,519.46C775.957,526.66 772.34,530.26 765.107,530.26Z" style="fill:none;fill-rule:nonzero;stroke:rgb(192,191,244);stroke-opacity:0.5;stroke-width:0.22px;stroke-linecap:butt;stroke-miterlimit:2;"/>
        <rect x="778.407" y="486.91" width="8.3" height="42.95" style="fill:none;fill-rule:nonzero;stroke:rgb(192,191,244);stroke-opacity:0.5;stroke-width:0.22px;stroke-linecap:butt;stroke-miterlimit:2;"/>
        <path d="M789.007,529.86L793.157,486.91L807.707,486.91L811.807,529.86L803.657,529.86L803.057,522.91L797.857,522.91L797.357,529.86L789.007,529.86ZM798.507,516.06L802.407,516.06L800.507,494.21L800.107,494.21L798.507,516.06Z" style="fill:none;fill-rule:nonzero;stroke:rgb(192,191,244);stroke-opacity:0.5;stroke-width:0.22px;stroke-linecap:butt;stroke-miterlimit:2;"/>
    </g>
    <g transform="matrix(0.935788,0,0,0.935788,-222.884,11.6987)">
        <g transform="matrix(67.4547,0,0,67.4547,234.92,350.893)">
            <path d="M0.048,-0.649L0.048,-0.727L0.594,-0.727L0.594,-0.649L0.365,-0.649L0.365,-0L0.277,-0L0.277,-0.649L0.048,-0.649Z" style="fill:rgb(29,30,50);fill-rule:nonzero;"/>
        </g>
        <g transform="matrix(67.4547,0,0,67.4547,278.229,350.893)">
            <path d="M0.077,-0L0.077,-0.545L0.161,-0.545L0.161,-0L0.077,-0ZM0.119,-0.636C0.103,-0.636 0.089,-0.642 0.077,-0.653C0.066,-0.664 0.06,-0.678 0.06,-0.693C0.06,-0.709 0.066,-0.722 0.077,-0.733C0.089,-0.744 0.103,-0.75 0.119,-0.75C0.136,-0.75 0.15,-0.744 0.161,-0.733C0.173,-0.722 0.179,-0.709 0.179,-0.693C0.179,-0.678 0.173,-0.664 0.161,-0.653C0.15,-0.642 0.136,-0.636 0.119,-0.636Z" style="fill:rgb(29,30,50);fill-rule:nonzero;"/>
        </g>
        <g transform="matrix(67.4547,0,0,67.4547,294.231,350.893)">
            <path d="M0.161,-0.328L0.161,-0L0.077,-0L0.077,-0.545L0.158,-0.545L0.158,-0.46L0.165,-0.46C0.178,-0.488 0.197,-0.51 0.223,-0.527C0.249,-0.544 0.283,-0.553 0.324,-0.553C0.379,-0.553 0.424,-0.536 0.458,-0.502C0.492,-0.468 0.509,-0.416 0.509,-0.347L0.509,-0L0.425,-0L0.425,-0.341C0.425,-0.384 0.414,-0.417 0.391,-0.441C0.369,-0.465 0.339,-0.477 0.3,-0.477C0.26,-0.477 0.227,-0.464 0.2,-0.438C0.174,-0.412 0.161,-0.376 0.161,-0.328Z" style="fill:rgb(29,30,50);fill-rule:nonzero;"/>
        </g>
        <g transform="matrix(67.4547,0,0,67.4547,332.365,350.893)">
            <path d="M0.131,0.203C0.116,0.203 0.104,0.202 0.093,0.2C0.082,0.198 0.074,0.195 0.07,0.193L0.091,0.119C0.121,0.127 0.147,0.127 0.167,0.119C0.188,0.111 0.205,0.086 0.22,0.045L0.236,0.003L0.034,-0.545L0.125,-0.545L0.276,-0.111L0.281,-0.111L0.432,-0.545L0.523,-0.544L0.291,0.08C0.26,0.162 0.207,0.203 0.131,0.203Z" style="fill:rgb(29,30,50);fill-rule:nonzero;"/>
        </g>
        <g transform="matrix(67.4547,0,0,67.4547,388.945,350.893)">
            <rect x="0.077" y="-0.727" width="0.084" height="0.727" style="fill:rgb(29,30,50);fill-rule:nonzero;"/>
        </g>
        <g transform="matrix(67.4547,0,0,67.4547,404.946,350.893)">
            <path d="M0.077,-0L0.077,-0.545L0.161,-0.545L0.161,-0L0.077,-0ZM0.119,-0.636C0.103,-0.636 0.089,-0.642 0.077,-0.653C0.066,-0.664 0.06,-0.678 0.06,-0.693C0.06,-0.709 0.066,-0.722 0.077,-0.733C0.089,-0.744 0.103,-0.75 0.119,-0.75C0.136,-0.75 0.15,-0.744 0.161,-0.733C0.173,-0.722 0.179,-0.709 0.179,-0.693C0.179,-0.678 0.173,-0.664 0.161,-0.653C0.15,-0.642 0.136,-0.636 0.119,-0.636Z" style="fill:rgb(29,30,50);fill-rule:nonzero;"/>
        </g>
        <g transform="matrix(67.4547,0,0,67.4547,420.948,350.893)">
            <path d="M0.088,-0L0.088,-0.727L0.172,-0.727L0.172,-0.459L0.179,-0.459C0.185,-0.468 0.194,-0.48 0.205,-0.495C0.216,-0.51 0.232,-0.523 0.252,-0.535C0.273,-0.547 0.301,-0.553 0.337,-0.553C0.383,-0.553 0.423,-0.541 0.458,-0.518C0.493,-0.495 0.52,-0.463 0.54,-0.42C0.56,-0.378 0.57,-0.329 0.57,-0.271C0.57,-0.214 0.56,-0.164 0.54,-0.121C0.52,-0.079 0.493,-0.046 0.458,-0.023C0.424,-0 0.384,0.011 0.338,0.011C0.303,0.011 0.275,0.006 0.254,-0.006C0.233,-0.018 0.217,-0.031 0.205,-0.046C0.194,-0.061 0.185,-0.074 0.179,-0.084L0.169,-0.084L0.169,-0L0.088,-0ZM0.17,-0.273C0.17,-0.211 0.184,-0.161 0.211,-0.122C0.238,-0.083 0.276,-0.064 0.327,-0.064C0.362,-0.064 0.391,-0.073 0.415,-0.092C0.438,-0.11 0.456,-0.135 0.468,-0.167C0.48,-0.199 0.486,-0.234 0.486,-0.273C0.486,-0.311 0.48,-0.346 0.468,-0.377C0.456,-0.407 0.439,-0.432 0.415,-0.45C0.392,-0.468 0.362,-0.477 0.327,-0.477C0.276,-0.477 0.237,-0.458 0.21,-0.421C0.184,-0.383 0.17,-0.334 0.17,-0.273Z" style="fill:rgb(29,30,50);fill-rule:nonzero;"/>
        </g>
        <g transform="matrix(67.4547,0,0,67.4547,462.819,350.893)">
            <path d="M0.077,-0L0.077,-0.545L0.158,-0.545L0.158,-0.463L0.163,-0.463C0.173,-0.49 0.191,-0.512 0.217,-0.529C0.243,-0.546 0.273,-0.554 0.305,-0.554C0.312,-0.554 0.319,-0.554 0.328,-0.554C0.338,-0.553 0.345,-0.553 0.349,-0.553L0.349,-0.467C0.347,-0.468 0.34,-0.469 0.33,-0.471C0.32,-0.472 0.309,-0.473 0.298,-0.473C0.259,-0.473 0.226,-0.461 0.2,-0.437C0.174,-0.413 0.161,-0.382 0.161,-0.345L0.161,-0L0.077,-0Z" style="fill:rgb(29,30,50);fill-rule:nonzero;"/>
        </g>
        <g transform="matrix(67.4547,0,0,67.4547,487.923,350.893)">
            <path d="M0.237,0.013C0.203,0.013 0.171,0.006 0.143,-0.007C0.115,-0.02 0.093,-0.039 0.076,-0.064C0.059,-0.089 0.051,-0.119 0.051,-0.155C0.051,-0.186 0.057,-0.211 0.07,-0.231C0.082,-0.251 0.098,-0.266 0.119,-0.277C0.14,-0.288 0.162,-0.296 0.187,-0.302C0.212,-0.308 0.237,-0.312 0.263,-0.315C0.296,-0.32 0.323,-0.323 0.344,-0.325C0.364,-0.327 0.379,-0.331 0.389,-0.337C0.399,-0.342 0.403,-0.352 0.403,-0.365L0.403,-0.368C0.403,-0.403 0.394,-0.43 0.375,-0.45C0.356,-0.469 0.327,-0.479 0.288,-0.479C0.248,-0.479 0.217,-0.47 0.194,-0.452C0.172,-0.435 0.156,-0.416 0.146,-0.396L0.067,-0.425C0.081,-0.458 0.1,-0.484 0.124,-0.502C0.148,-0.521 0.174,-0.534 0.202,-0.541C0.23,-0.549 0.258,-0.553 0.286,-0.553C0.303,-0.553 0.323,-0.55 0.346,-0.546C0.369,-0.542 0.391,-0.534 0.412,-0.521C0.434,-0.508 0.452,-0.489 0.466,-0.463C0.48,-0.437 0.487,-0.403 0.487,-0.359L0.487,-0L0.403,-0L0.403,-0.074L0.399,-0.074C0.393,-0.062 0.384,-0.049 0.371,-0.036C0.357,-0.022 0.34,-0.011 0.318,-0.001C0.296,0.008 0.269,0.013 0.237,0.013ZM0.25,-0.063C0.283,-0.063 0.311,-0.069 0.334,-0.082C0.357,-0.095 0.374,-0.112 0.386,-0.132C0.398,-0.153 0.403,-0.175 0.403,-0.197L0.403,-0.274C0.4,-0.27 0.392,-0.266 0.38,-0.263C0.368,-0.259 0.354,-0.256 0.339,-0.254C0.323,-0.251 0.308,-0.249 0.294,-0.247C0.279,-0.246 0.268,-0.244 0.259,-0.243C0.237,-0.24 0.216,-0.235 0.198,-0.229C0.179,-0.223 0.164,-0.214 0.152,-0.201C0.141,-0.189 0.135,-0.172 0.135,-0.151C0.135,-0.121 0.146,-0.099 0.167,-0.085C0.189,-0.07 0.217,-0.063 0.25,-0.063Z" style="fill:rgb(29,30,50);fill-rule:nonzero;"/>
        </g>
        <g transform="matrix(67.4547,0,0,67.4547,525.962,350.893)">
            <path d="M0.077,-0L0.077,-0.545L0.158,-0.545L0.158,-0.463L0.163,-0.463C0.173,-0.49 0.191,-0.512 0.217,-0.529C0.243,-0.546 0.273,-0.554 0.305,-0.554C0.312,-0.554 0.319,-0.554 0.328,-0.554C0.338,-0.553 0.345,-0.553 0.349,-0.553L0.349,-0.467C0.347,-0.468 0.34,-0.469 0.33,-0.471C0.32,-0.472 0.309,-0.473 0.298,-0.473C0.259,-0.473 0.226,-0.461 0.2,-0.437C0.174,-0.413 0.161,-0.382 0.161,-0.345L0.161,-0L0.077,-0Z" style="fill:rgb(29,30,50);fill-rule:nonzero;"/>
        </g>
        <g transform="matrix(67.4547,0,0,67.4547,552.216,350.893)">
            <path d="M0.131,0.203C0.116,0.203 0.104,0.202 0.093,0.2C0.082,0.198 0.074,0.195 0.07,0.193L0.091,0.119C0.121,0.127 0.147,0.127 0.167,0.119C0.188,0.111 0.205,0.086 0.22,0.045L0.236,0.003L0.034,-0.545L0.125,-0.545L0.276,-0.111L0.281,-0.111L0.432,-0.545L0.523,-0.544L0.291,0.08C0.26,0.162 0.207,0.203 0.131,0.203Z" style="fill:rgb(29,30,50);fill-rule:nonzero;"/>
        </g>
        <g transform="matrix(67.4547,0,0,67.4547,608.796,350.893)">
            <path d="M0.32,-0.545L0.32,-0.474L0.197,-0.474L0.197,-0L0.114,-0L0.114,-0.474L0.026,-0.474L0.026,-0.545L0.114,-0.545L0.114,-0.621C0.114,-0.652 0.121,-0.678 0.136,-0.699C0.15,-0.72 0.169,-0.735 0.193,-0.746C0.216,-0.756 0.241,-0.761 0.267,-0.761C0.288,-0.761 0.304,-0.76 0.317,-0.756C0.33,-0.753 0.34,-0.75 0.347,-0.747L0.322,-0.675C0.318,-0.676 0.312,-0.678 0.305,-0.68C0.297,-0.682 0.288,-0.683 0.276,-0.683C0.248,-0.683 0.228,-0.676 0.216,-0.662C0.204,-0.648 0.197,-0.628 0.197,-0.601L0.197,-0.545L0.32,-0.545Z" style="fill:rgb(29,30,50);fill-rule:nonzero;"/>
        </g>
        <g transform="matrix(67.4547,0,0,67.4547,631.6,350.893)">
            <path d="M0.298,0.011C0.249,0.011 0.206,-0 0.169,-0.024C0.132,-0.047 0.103,-0.08 0.082,-0.122C0.061,-0.164 0.051,-0.214 0.051,-0.27C0.051,-0.327 0.061,-0.376 0.082,-0.419C0.103,-0.461 0.132,-0.494 0.169,-0.517C0.206,-0.541 0.249,-0.553 0.298,-0.553C0.348,-0.553 0.391,-0.541 0.428,-0.517C0.465,-0.494 0.494,-0.461 0.514,-0.419C0.535,-0.376 0.545,-0.327 0.545,-0.27C0.545,-0.214 0.535,-0.164 0.514,-0.122C0.494,-0.08 0.465,-0.047 0.428,-0.024C0.391,-0 0.348,0.011 0.298,0.011ZM0.298,-0.064C0.336,-0.064 0.366,-0.074 0.391,-0.093C0.415,-0.112 0.433,-0.137 0.444,-0.168C0.456,-0.2 0.462,-0.233 0.462,-0.27C0.462,-0.306 0.456,-0.34 0.444,-0.372C0.433,-0.403 0.415,-0.429 0.391,-0.448C0.366,-0.468 0.336,-0.477 0.298,-0.477C0.261,-0.477 0.23,-0.468 0.206,-0.448C0.182,-0.429 0.164,-0.403 0.152,-0.372C0.141,-0.34 0.135,-0.306 0.135,-0.27C0.135,-0.233 0.141,-0.2 0.152,-0.168C0.164,-0.137 0.182,-0.112 0.206,-0.093C0.23,-0.074 0.261,-0.064 0.298,-0.064Z" style="fill:rgb(29,30,50);fill-rule:nonzero;"/>
        </g>
        <g transform="matrix(67.4547,0,0,67.4547,671.843,350.893)">
            <path d="M0.077,-0L0.077,-0.545L0.158,-0.545L0.158,-0.463L0.163,-0.463C0.173,-0.49 0.191,-0.512 0.217,-0.529C0.243,-0.546 0.273,-0.554 0.305,-0.554C0.312,-0.554 0.319,-0.554 0.328,-0.554C0.338,-0.553 0.345,-0.553 0.349,-0.553L0.349,-0.467C0.347,-0.468 0.34,-0.469 0.33,-0.471C0.32,-0.472 0.309,-0.473 0.298,-0.473C0.259,-0.473 0.226,-0.461 0.2,-0.437C0.174,-0.413 0.161,-0.382 0.161,-0.345L0.161,-0L0.077,-0Z" style="fill:rgb(29,30,50);fill-rule:nonzero;"/>
        </g>
        <g transform="matrix(67.4547,0,0,67.4547,715.918,350.893)">
            <path d="M0.314,-0.545L0.314,-0.474L0.197,-0.474L0.197,-0.156C0.197,-0.133 0.201,-0.115 0.208,-0.103C0.215,-0.091 0.224,-0.084 0.235,-0.08C0.246,-0.076 0.258,-0.074 0.27,-0.074C0.279,-0.074 0.287,-0.074 0.293,-0.075C0.299,-0.077 0.303,-0.077 0.307,-0.078L0.324,-0.003C0.318,-0.001 0.31,0.001 0.3,0.004C0.29,0.006 0.277,0.007 0.261,0.007C0.238,0.007 0.215,0.002 0.192,-0.008C0.169,-0.018 0.151,-0.034 0.136,-0.055C0.121,-0.076 0.114,-0.102 0.114,-0.134L0.114,-0.474L0.031,-0.474L0.031,-0.545L0.114,-0.545L0.114,-0.676L0.197,-0.676L0.197,-0.545L0.314,-0.545Z" style="fill:rgb(29,30,50);fill-rule:nonzero;"/>
        </g>
        <g transform="matrix(67.4547,0,0,67.4547,740.447,350.893)">
            <path d="M0.077,-0L0.077,-0.545L0.161,-0.545L0.161,-0L0.077,-0ZM0.119,-0.636C0.103,-0.636 0.089,-0.642 0.077,-0.653C0.066,-0.664 0.06,-0.678 0.06,-0.693C0.06,-0.709 0.066,-0.722 0.077,-0.733C0.089,-0.744 0.103,-0.75 0.119,-0.75C0.136,-0.75 0.15,-0.744 0.161,-0.733C0.173,-0.722 0.179,-0.709 0.179,-0.693C0.179,-0.678 0.173,-0.664 0.161,-0.653C0.15,-0.642 0.136,-0.636 0.119,-0.636Z" style="fill:rgb(29,30,50);fill-rule:nonzero;"/>
        </g>
        <g transform="matrix(67.4547,0,0,67.4547,756.448,350.893)">
            <path d="M0.161,-0.328L0.161,-0L0.077,-0L0.077,-0.545L0.158,-0.545L0.158,-0.46L0.165,-0.46C0.178,-0.488 0.197,-0.51 0.223,-0.527C0.249,-0.544 0.283,-0.553 0.324,-0.553C0.379,-0.553 0.424,-0.536 0.458,-0.502C0.492,-0.468 0.509,-0.416 0.509,-0.347L0.509,-0L0.425,-0L0.425,-0.341C0.425,-0.384 0.414,-0.417 0.391,-0.441C0.369,-0.465 0.339,-0.477 0.3,-0.477C0.26,-0.477 0.227,-0.464 0.2,-0.438C0.174,-0.412 0.161,-0.376 0.161,-0.328Z" style="fill:rgb(29,30,50);fill-rule:nonzero;"/>
        </g>
        <g transform="matrix(67.4547,0,0,67.4547,794.583,350.893)">
            <path d="M0.131,0.203C0.116,0.203 0.104,0.202 0.093,0.2C0.082,0.198 0.074,0.195 0.07,0.193L0.091,0.119C0.121,0.127 0.147,0.127 0.167,0.119C0.188,0.111 0.205,0.086 0.22,0.045L0.236,0.003L0.034,-0.545L0.125,-0.545L0.276,-0.111L0.281,-0.111L0.432,-0.545L0.523,-0.544L0.291,0.08C0.26,0.162 0.207,0.203 0.131,0.203Z" style="fill:rgb(29,30,50);fill-rule:nonzero;"/>
        </g>
        <g transform="matrix(67.4547,0,0,67.4547,851.163,350.893)">
            <path d="M0.2,-0L0.034,-0.545L0.122,-0.545L0.24,-0.128L0.246,-0.128L0.362,-0.545L0.452,-0.545L0.567,-0.129L0.572,-0.129L0.69,-0.545L0.778,-0.545L0.612,-0L0.53,-0L0.411,-0.419L0.402,-0.419L0.283,-0L0.2,-0Z" style="fill:rgb(29,30,50);fill-rule:nonzero;"/>
        </g>
        <g transform="matrix(67.4547,0,0,67.4547,904.724,350.893)">
            <path d="M0.305,0.011C0.253,0.011 0.208,-0 0.17,-0.024C0.132,-0.047 0.102,-0.08 0.082,-0.122C0.061,-0.164 0.051,-0.213 0.051,-0.268C0.051,-0.324 0.061,-0.374 0.082,-0.416C0.102,-0.459 0.131,-0.492 0.168,-0.517C0.205,-0.541 0.248,-0.553 0.297,-0.553C0.325,-0.553 0.353,-0.548 0.381,-0.538C0.409,-0.529 0.434,-0.514 0.457,-0.492C0.479,-0.471 0.498,-0.443 0.511,-0.408C0.525,-0.374 0.531,-0.331 0.531,-0.28L0.531,-0.244L0.135,-0.244C0.137,-0.186 0.154,-0.141 0.185,-0.11C0.216,-0.079 0.256,-0.064 0.305,-0.064C0.338,-0.064 0.367,-0.071 0.39,-0.085C0.414,-0.099 0.431,-0.121 0.442,-0.149L0.523,-0.126C0.51,-0.085 0.484,-0.052 0.446,-0.027C0.408,-0.001 0.361,0.011 0.305,0.011ZM0.135,-0.317L0.446,-0.317C0.446,-0.363 0.433,-0.401 0.406,-0.432C0.379,-0.462 0.342,-0.477 0.297,-0.477C0.265,-0.477 0.237,-0.47 0.214,-0.455C0.19,-0.44 0.172,-0.42 0.158,-0.396C0.145,-0.371 0.137,-0.345 0.135,-0.317Z" style="fill:rgb(29,30,50);fill-rule:nonzero;"/>
        </g>
        <g transform="matrix(67.4547,0,0,67.4547,944.009,350.893)">
            <path d="M0.088,-0L0.088,-0.727L0.172,-0.727L0.172,-0.459L0.179,-0.459C0.185,-0.468 0.194,-0.48 0.205,-0.495C0.216,-0.51 0.232,-0.523 0.252,-0.535C0.273,-0.547 0.301,-0.553 0.337,-0.553C0.383,-0.553 0.423,-0.541 0.458,-0.518C0.493,-0.495 0.52,-0.463 0.54,-0.42C0.56,-0.378 0.57,-0.329 0.57,-0.271C0.57,-0.214 0.56,-0.164 0.54,-0.121C0.52,-0.079 0.493,-0.046 0.458,-0.023C0.424,-0 0.384,0.011 0.338,0.011C0.303,0.011 0.275,0.006 0.254,-0.006C0.233,-0.018 0.217,-0.031 0.205,-0.046C0.194,-0.061 0.185,-0.074 0.179,-0.084L0.169,-0.084L0.169,-0L0.088,-0ZM0.17,-0.273C0.17,-0.211 0.184,-0.161 0.211,-0.122C0.238,-0.083 0.276,-0.064 0.327,-0.064C0.362,-0.064 0.391,-0.073 0.415,-0.092C0.438,-0.11 0.456,-0.135 0.468,-0.167C0.48,-0.199 0.486,-0.234 0.486,-0.273C0.486,-0.311 0.48,-0.346 0.468,-0.377C0.456,-0.407 0.439,-0.432 0.415,-0.45C0.392,-0.468 0.362,-0.477 0.327,-0.477C0.276,-0.477 0.237,-0.458 0.21,-0.421C0.184,-0.383 0.17,-0.334 0.17,-0.273Z" style="fill:rgb(29,30,50);fill-rule:nonzero;"/>
        </g>
        <g transform="matrix(67.4547,0,0,67.4547,1004.85,350.893)">
            <path d="M0.237,0.013C0.203,0.013 0.171,0.006 0.143,-0.007C0.115,-0.02 0.093,-0.039 0.076,-0.064C0.059,-0.089 0.051,-0.119 0.051,-0.155C0.051,-0.186 0.057,-0.211 0.07,-0.231C0.082,-0.251 0.098,-0.266 0.119,-0.277C0.14,-0.288 0.162,-0.296 0.187,-0.302C0.212,-0.308 0.237,-0.312 0.263,-0.315C0.296,-0.32 0.323,-0.323 0.344,-0.325C0.364,-0.327 0.379,-0.331 0.389,-0.337C0.399,-0.342 0.403,-0.352 0.403,-0.365L0.403,-0.368C0.403,-0.403 0.394,-0.43 0.375,-0.45C0.356,-0.469 0.327,-0.479 0.288,-0.479C0.248,-0.479 0.217,-0.47 0.194,-0.452C0.172,-0.435 0.156,-0.416 0.146,-0.396L0.067,-0.425C0.081,-0.458 0.1,-0.484 0.124,-0.502C0.148,-0.521 0.174,-0.534 0.202,-0.541C0.23,-0.549 0.258,-0.553 0.286,-0.553C0.303,-0.553 0.323,-0.55 0.346,-0.546C0.369,-0.542 0.391,-0.534 0.412,-0.521C0.434,-0.508 0.452,-0.489 0.466,-0.463C0.48,-0.437 0.487,-0.403 0.487,-0.359L0.487,-0L0.403,-0L0.403,-0.074L0.399,-0.074C0.393,-0.062 0.384,-0.049 0.371,-0.036C0.357,-0.022 0.34,-0.011 0.318,-0.001C0.296,0.008 0.269,0.013 0.237,0.013ZM0.25,-0.063C0.283,-0.063 0.311,-0.069 0.334,-0.082C0.357,-0.095 0.374,-0.112 0.386,-0.132C0.398,-0.153 0.403,-0.175 0.403,-0.197L0.403,-0.274C0.4,-0.27 0.392,-0.266 0.38,-0.263C0.368,-0.259 0.354,-0.256 0.339,-0.254C0.323,-0.251 0.308,-0.249 0.294,-0.247C0.279,-0.246 0.268,-0.244 0.259,-0.243C0.237,-0.24 0.216,-0.235 0.198,-0.229C0.179,-0.223 0.164,-0.214 0.152,-0.201C0.141,-0.189 0.135,-0.172 0.135,-0.151C0.135,-0.121 0.146,-0.099 0.167,-0.085C0.189,-0.07 0.217,-0.063 0.25,-0.063Z" style="fill:rgb(29,30,50);fill-rule:nonzero;"/>
        </g>
        <g transform="matrix(67.4547,0,0,67.4547,1042.89,350.893)">
            <path d="M0.077,0.205L0.077,-0.545L0.158,-0.545L0.158,-0.459L0.168,-0.459C0.174,-0.468 0.182,-0.48 0.193,-0.495C0.204,-0.51 0.22,-0.523 0.241,-0.535C0.262,-0.547 0.29,-0.553 0.325,-0.553C0.371,-0.553 0.412,-0.541 0.447,-0.518C0.482,-0.495 0.509,-0.463 0.529,-0.42C0.548,-0.378 0.558,-0.329 0.558,-0.271C0.558,-0.214 0.548,-0.164 0.529,-0.121C0.509,-0.079 0.482,-0.046 0.447,-0.023C0.412,-0 0.372,0.011 0.327,0.011C0.292,0.011 0.264,0.006 0.243,-0.006C0.221,-0.018 0.205,-0.031 0.194,-0.046C0.183,-0.061 0.174,-0.074 0.168,-0.084L0.161,-0.084L0.161,0.205L0.077,0.205ZM0.159,-0.273C0.159,-0.211 0.173,-0.161 0.199,-0.122C0.226,-0.083 0.265,-0.064 0.315,-0.064C0.35,-0.064 0.38,-0.073 0.403,-0.092C0.427,-0.11 0.445,-0.135 0.456,-0.167C0.468,-0.199 0.474,-0.234 0.474,-0.273C0.474,-0.311 0.469,-0.346 0.457,-0.377C0.445,-0.407 0.427,-0.432 0.404,-0.45C0.38,-0.468 0.351,-0.477 0.315,-0.477C0.264,-0.477 0.225,-0.458 0.199,-0.421C0.172,-0.383 0.159,-0.334 0.159,-0.273Z" style="fill:rgb(29,30,50);fill-rule:nonzero;"/>
        </g>
        <g transform="matrix(67.4547,0,0,67.4547,1084,350.893)">
            <path d="M0.077,0.205L0.077,-0.545L0.158,-0.545L0.158,-0.459L0.168,-0.459C0.174,-0.468 0.182,-0.48 0.193,-0.495C0.204,-0.51 0.22,-0.523 0.241,-0.535C0.262,-0.547 0.29,-0.553 0.325,-0.553C0.371,-0.553 0.412,-0.541 0.447,-0.518C0.482,-0.495 0.509,-0.463 0.529,-0.42C0.548,-0.378 0.558,-0.329 0.558,-0.271C0.558,-0.214 0.548,-0.164 0.529,-0.121C0.509,-0.079 0.482,-0.046 0.447,-0.023C0.412,-0 0.372,0.011 0.327,0.011C0.292,0.011 0.264,0.006 0.243,-0.006C0.221,-0.018 0.205,-0.031 0.194,-0.046C0.183,-0.061 0.174,-0.074 0.168,-0.084L0.161,-0.084L0.161,0.205L0.077,0.205ZM0.159,-0.273C0.159,-0.211 0.173,-0.161 0.199,-0.122C0.226,-0.083 0.265,-0.064 0.315,-0.064C0.35,-0.064 0.38,-0.073 0.403,-0.092C0.427,-0.11 0.445,-0.135 0.456,-0.167C0.468,-0.199 0.474,-0.234 0.474,-0.273C0.474,-0.311 0.469,-0.346 0.457,-0.377C0.445,-0.407 0.427,-0.432 0.404,-0.45C0.38,-0.468 0.351,-0.477 0.315,-0.477C0.264,-0.477 0.225,-0.458 0.199,-0.421C0.172,-0.383 0.159,-0.334 0.159,-0.273Z" style="fill:rgb(29,30,50);fill-rule:nonzero;"/>
        </g>
        <g transform="matrix(67.4547,0,0,67.4547,1125.1,350.893)">
            <path d="M0.463,-0.423L0.388,-0.402C0.38,-0.421 0.368,-0.439 0.351,-0.455C0.334,-0.472 0.307,-0.48 0.27,-0.48C0.237,-0.48 0.209,-0.472 0.187,-0.457C0.164,-0.442 0.153,-0.423 0.153,-0.399C0.153,-0.378 0.161,-0.362 0.176,-0.35C0.191,-0.338 0.215,-0.328 0.247,-0.32L0.328,-0.3C0.425,-0.276 0.473,-0.227 0.473,-0.152C0.473,-0.121 0.464,-0.093 0.446,-0.068C0.428,-0.044 0.403,-0.024 0.371,-0.01C0.339,0.004 0.302,0.011 0.26,0.011C0.204,0.011 0.158,-0.001 0.122,-0.025C0.085,-0.049 0.062,-0.084 0.053,-0.131L0.132,-0.151C0.147,-0.092 0.189,-0.063 0.259,-0.063C0.298,-0.063 0.329,-0.071 0.352,-0.088C0.375,-0.104 0.386,-0.124 0.386,-0.148C0.386,-0.186 0.359,-0.212 0.305,-0.224L0.214,-0.246C0.165,-0.258 0.128,-0.276 0.105,-0.301C0.081,-0.326 0.07,-0.357 0.07,-0.395C0.07,-0.426 0.078,-0.453 0.096,-0.477C0.113,-0.5 0.137,-0.519 0.167,-0.532C0.197,-0.546 0.232,-0.553 0.27,-0.553C0.324,-0.553 0.366,-0.541 0.397,-0.517C0.428,-0.493 0.45,-0.462 0.463,-0.423Z" style="fill:rgb(29,30,50);fill-rule:nonzero;"/>
        </g>
    </g>
    <g transform="matrix(2.71385,0,0,2.71385,-1069.98,-306.244)">
        <g transform="matrix(67.4547,0,0,67.4547,390.003,207.361)">
            <path d="M0.063,-0L0.063,-0.727L0.217,-0.727L0.217,-0.127L0.529,-0.127L0.529,-0L0.063,-0Z" style="fill:rgb(29,30,50);fill-rule:nonzero;"/>
        </g>
        <g transform="matrix(67.4547,0,0,67.4547,428.282,207.361)">
            <path d="M0.41,-0.232L0.41,-0.545L0.561,-0.545L0.561,-0L0.416,-0L0.416,-0.099L0.411,-0.099C0.398,-0.067 0.378,-0.041 0.349,-0.022C0.321,-0.003 0.286,0.007 0.245,0.007C0.19,0.007 0.146,-0.011 0.112,-0.048C0.078,-0.084 0.061,-0.134 0.06,-0.198L0.06,-0.545L0.212,-0.545L0.212,-0.225C0.212,-0.193 0.221,-0.167 0.238,-0.149C0.255,-0.13 0.277,-0.121 0.306,-0.121C0.333,-0.121 0.358,-0.13 0.379,-0.149C0.4,-0.168 0.41,-0.196 0.41,-0.232Z" style="fill:rgb(29,30,50);fill-rule:nonzero;"/>
        </g>
        <g transform="matrix(67.4547,0,0,67.4547,470.225,207.361)">
            <path d="M0.307,0.011C0.251,0.011 0.203,-0.001 0.163,-0.025C0.123,-0.049 0.092,-0.082 0.07,-0.124C0.049,-0.167 0.038,-0.215 0.038,-0.271C0.038,-0.326 0.049,-0.376 0.071,-0.418C0.093,-0.46 0.123,-0.493 0.163,-0.517C0.203,-0.541 0.251,-0.553 0.306,-0.553C0.354,-0.553 0.395,-0.544 0.431,-0.527C0.467,-0.509 0.495,-0.485 0.516,-0.454C0.537,-0.423 0.548,-0.386 0.55,-0.344L0.408,-0.344C0.404,-0.371 0.393,-0.393 0.376,-0.41C0.359,-0.426 0.336,-0.435 0.309,-0.435C0.274,-0.435 0.245,-0.421 0.224,-0.392C0.203,-0.364 0.192,-0.324 0.192,-0.273C0.192,-0.221 0.203,-0.18 0.224,-0.152C0.245,-0.123 0.273,-0.109 0.309,-0.109C0.335,-0.109 0.357,-0.117 0.374,-0.133C0.392,-0.148 0.403,-0.171 0.408,-0.2L0.55,-0.2C0.548,-0.158 0.537,-0.122 0.517,-0.09C0.496,-0.058 0.468,-0.033 0.433,-0.016C0.397,0.002 0.355,0.011 0.307,0.011Z" style="fill:rgb(29,30,50);fill-rule:nonzero;"/>
        </g>
        <g transform="matrix(67.4547,0,0,67.4547,509.845,207.361)">
            <path d="M0.06,-0L0.06,-0.545L0.212,-0.545L0.212,-0L0.06,-0ZM0.136,-0.616C0.114,-0.616 0.095,-0.623 0.079,-0.638C0.063,-0.653 0.055,-0.671 0.055,-0.692C0.055,-0.714 0.063,-0.732 0.079,-0.746C0.095,-0.761 0.114,-0.769 0.136,-0.769C0.159,-0.769 0.178,-0.761 0.194,-0.746C0.21,-0.732 0.218,-0.714 0.218,-0.692C0.218,-0.671 0.21,-0.653 0.194,-0.638C0.178,-0.623 0.159,-0.616 0.136,-0.616Z" style="fill:rgb(29,30,50);fill-rule:nonzero;"/>
        </g>
        <g transform="matrix(67.4547,0,0,67.4547,528.194,207.361)">
            <path d="M0.216,0.01C0.164,0.01 0.121,-0.003 0.086,-0.031C0.052,-0.058 0.035,-0.098 0.035,-0.152C0.035,-0.193 0.044,-0.225 0.064,-0.248C0.083,-0.271 0.108,-0.288 0.139,-0.299C0.17,-0.31 0.204,-0.317 0.24,-0.32C0.287,-0.325 0.321,-0.33 0.341,-0.335C0.362,-0.34 0.372,-0.352 0.372,-0.369L0.372,-0.371C0.372,-0.394 0.365,-0.411 0.351,-0.424C0.337,-0.436 0.317,-0.442 0.291,-0.442C0.264,-0.442 0.242,-0.436 0.226,-0.424C0.21,-0.413 0.199,-0.397 0.194,-0.379L0.054,-0.391C0.064,-0.44 0.09,-0.48 0.132,-0.509C0.173,-0.538 0.226,-0.553 0.292,-0.553C0.332,-0.553 0.37,-0.546 0.405,-0.533C0.44,-0.521 0.469,-0.501 0.491,-0.474C0.512,-0.446 0.523,-0.411 0.523,-0.368L0.523,-0L0.38,-0L0.38,-0.076L0.375,-0.076C0.362,-0.05 0.342,-0.03 0.316,-0.014C0.289,0.002 0.256,0.01 0.216,0.01ZM0.259,-0.094C0.292,-0.094 0.32,-0.104 0.341,-0.123C0.362,-0.142 0.373,-0.166 0.373,-0.195L0.373,-0.253C0.367,-0.249 0.358,-0.245 0.345,-0.242C0.333,-0.239 0.32,-0.236 0.306,-0.234C0.291,-0.232 0.279,-0.23 0.268,-0.228C0.241,-0.225 0.22,-0.217 0.204,-0.206C0.187,-0.195 0.179,-0.179 0.179,-0.157C0.179,-0.136 0.187,-0.121 0.202,-0.11C0.217,-0.099 0.236,-0.094 0.259,-0.094Z" style="fill:rgb(29,30,50);fill-rule:nonzero;"/>
        </g>
    </g>
</svg>
