<?xml version="1.0" encoding="UTF-8" standalone="no"?>
<!DOCTYPE svg PUBLIC "-//W3C//DTD SVG 1.1//EN" "http://www.w3.org/Graphics/SVG/1.1/DTD/svg11.dtd">
<svg width="100%" height="100%" viewBox="0 0 2500 2500" version="1.1" xmlns="http://www.w3.org/2000/svg" xmlns:xlink="http://www.w3.org/1999/xlink" xml:space="preserve" xmlns:serif="http://www.serif.com/" style="fill-rule:evenodd;clip-rule:evenodd;stroke-linejoin:round;stroke-miterlimit:2;">
    <circle cx="1250" cy="1250" r="1250" style="fill:white;"/>
    <path d="M1.361,1192.72C31.242,529.397 579.285,0 1250,0C1939.89,0 2500,560.106 2500,1250C2500,1939.89 1939.89,2500 1250,2500C1077.46,2500 913.033,2464.97 763.515,2401.65L1286.27,1936.01C1395.56,1861.5 1495.89,1773.36 1612.13,1717.2C1900.91,1577.68 2088.43,1430.57 2057.14,1298.73L1898.76,1298.73C1889.87,1298.73 1881.35,1295.2 1875.07,1288.92C1868.78,1282.64 1865.25,1274.12 1865.25,1265.23C1865.25,1256.34 1868.78,1247.82 1875.07,1241.54C1881.35,1235.26 1889.87,1231.73 1898.76,1231.73L2057.14,1231.73C1991.65,1080.6 1852.91,1015.8 1684.03,986.538L1683.8,986.423C1683.95,982.41 1684.03,978.392 1684.03,974.355C1684.03,800.369 1542.77,659.115 1368.79,659.115C1365.55,659.115 1362.33,659.164 1359.13,659.261C1314.73,604.379 1246.84,569.264 1170.81,569.264C1089.54,569.264 1017.57,609.385 973.633,670.899C954.005,663.288 932.683,659.115 910.393,659.115C820.907,659.115 747.006,726.376 736.531,813.055C728.641,811.966 720.594,811.405 712.416,811.405C615.757,811.405 537.283,889.879 537.283,986.538C537.283,988.752 537.324,990.956 537.406,993.152L1.361,1192.72ZM689.573,1329.19L732.214,1539.35C703.305,1533.21 675.162,1525.79 647.774,1517.11C635.094,1513.1 622.574,1508.81 610.203,1504.26L608.676,1503.69C606.517,1502.89 604.363,1502.08 602.214,1501.27C601.493,1500.99 600.773,1500.72 600.044,1500.44C594.67,1498.38 589.327,1496.28 584.005,1494.11L582.223,1493.38L580.449,1492.66C574.319,1490.13 568.23,1487.54 562.176,1484.88L559.951,1483.89C553.08,1480.85 546.261,1477.72 539.498,1474.5L537.6,1473.59L536.523,1473.07C535.577,1472.62 534.633,1472.16 533.683,1471.7C532.781,1471.26 531.879,1470.82 530.972,1470.38C510.979,1460.58 491.45,1450.01 472.382,1438.69L471.751,1438.32C468.523,1436.4 465.309,1434.45 462.112,1432.49C460.459,1431.48 458.81,1430.46 457.159,1429.43L455.507,1428.4C452.632,1426.6 449.767,1424.78 446.916,1422.95L446.151,1422.45C424.58,1408.54 403.619,1393.63 383.259,1377.73L381.875,1376.65L380.324,1375.43C365.314,1363.6 350.627,1351.23 336.26,1338.33C345.383,1341.52 354.495,1344.49 363.593,1347.23C367.262,1348.33 370.929,1349.4 374.587,1350.43C375.409,1350.66 376.231,1350.89 377.039,1351.11L378.591,1351.54L380.35,1352.02C382.853,1352.69 385.356,1353.35 387.855,1353.99L388.41,1354.13C390.46,1354.65 392.509,1355.16 394.549,1355.66C396.796,1356.2 399.043,1356.74 401.281,1357.25C402.15,1357.45 403.018,1357.65 403.892,1357.85L405.409,1358.18C412.4,1359.74 419.384,1361.14 426.37,1362.4L427.913,1362.68C429.639,1362.99 431.364,1363.28 433.101,1363.57L434.178,1363.75C434.642,1363.83 435.106,1363.9 435.57,1363.98L436.792,1364.17C438.245,1364.4 439.697,1364.63 441.138,1364.84C443.455,1365.19 445.772,1365.52 448.093,1365.84L449.484,1366.02C455.932,1366.88 462.374,1367.6 468.82,1368.19L470.695,1368.36L472.357,1368.5C474.255,1368.66 476.153,1368.81 478.059,1368.94C482.113,1369.23 486.164,1369.46 490.214,1369.64C491.566,1369.7 492.917,1369.76 494.268,1369.8C496.447,1369.88 498.626,1369.94 500.796,1369.99C564.411,1371.28 627.391,1358.75 689.573,1329.19ZM1318.97,1064.64C1327.07,1062.37 1335.6,1061.16 1344.42,1061.16L1345.64,1061.17L1346.05,1061.17C1348.14,1061.21 1350.22,1061.31 1352.28,1061.48L1352.88,1061.54C1354.46,1061.67 1356.02,1061.86 1357.59,1062.07L1357.68,1062.09C1359.03,1062.28 1360.37,1062.5 1361.71,1062.74L1362.56,1062.9C1406.01,1071.38 1438.84,1109.67 1438.84,1155.58C1438.84,1207.69 1396.53,1250 1344.42,1250C1335.54,1250 1326.93,1248.77 1318.78,1246.47C1318.05,1246.27 1317.32,1246.05 1316.6,1245.83C1305.61,1242.44 1295.48,1237.1 1286.61,1230.22L1286.45,1230.1C1264.28,1212.82 1250,1185.85 1250,1155.58C1250,1143.77 1252.17,1132.47 1256.14,1122.05C1256.39,1121.39 1256.64,1120.74 1256.91,1120.1C1258.28,1116.7 1259.85,1113.41 1261.6,1110.22L1262.23,1109.09L1262.8,1108.1L1262.93,1107.88C1263.33,1107.21 1263.73,1106.55 1264.14,1105.89C1264.48,1105.33 1264.84,1104.78 1265.19,1104.23C1266.08,1102.87 1266.99,1101.54 1267.94,1100.23C1270.39,1096.85 1273.06,1093.64 1275.92,1090.62C1287.1,1078.84 1301.28,1069.93 1317.23,1065.14L1318.02,1064.91L1318.97,1064.64Z"/>
    <g transform="matrix(1.13971,0,0,1.13971,-362.279,-67.3032)">
        <path d="M2076.39,557.117C2081.27,542.703 2094.79,533 2110,533C2125.21,533 2138.73,542.703 2143.61,557.117L2180.55,666.453L2289.88,703.395C2304.3,708.266 2314,721.786 2314,737C2314,752.214 2304.3,765.734 2289.88,770.605L2180.55,807.547L2143.61,916.883C2138.73,931.297 2125.21,941 2110,941C2094.79,941 2081.27,931.297 2076.39,916.883L2039.45,807.547L1930.12,770.605C1915.7,765.734 1906,752.214 1906,737C1906,721.786 1915.7,708.266 1930.12,703.395L2039.45,666.453L2076.39,557.117Z" style="fill:url(#_Linear1);"/>
    </g>
    <defs>
        <linearGradient id="_Linear1" x1="0" y1="0" x2="1" y2="0" gradientUnits="userSpaceOnUse" gradientTransform="matrix(236.025,-227.251,227.251,236.025,1952.5,896.108)"><stop offset="0" style="stop-color:rgb(196,84,255);stop-opacity:1"/><stop offset="1" style="stop-color:rgb(250,138,124);stop-opacity:1"/></linearGradient>
    </defs>
</svg>
