<!--?xml version="1.0" encoding="UTF-8" standalone="no"?-->

<svg width="100%" height="100%" viewBox="0 0 1000 355" version="1.1" xmlns="http://www.w3.org/2000/svg" xmlns:xlink="http://www.w3.org/1999/xlink" xml:space="preserve" xmlns:serif="http://www.serif.com/" style="fill-rule: evenodd; clip-rule: evenodd; stroke-linecap: round; stroke-linejoin: round; stroke-miterlimit: 1.5;">
    <g transform="matrix(3.51526,0,0,3.51526,-983.774,-476.082)">
        <g transform="matrix(67.4547,0,0,67.4547,390.003,207.361)">
            <path d="M0.063,-0L0.063,-0.727L0.217,-0.727L0.217,-0.127L0.529,-0.127L0.529,-0L0.063,-0Z" style="fill:rgb(29,30,50);fill-rule:nonzero;" class="YQVNLMkV_0"></path>
        </g>
        <g transform="matrix(67.4547,0,0,67.4547,428.282,207.361)">
            <path d="M0.41,-0.232L0.41,-0.545L0.561,-0.545L0.561,-0L0.416,-0L0.416,-0.099L0.411,-0.099C0.398,-0.067 0.378,-0.041 0.349,-0.022C0.321,-0.003 0.286,0.007 0.245,0.007C0.19,0.007 0.146,-0.011 0.112,-0.048C0.078,-0.084 0.061,-0.134 0.06,-0.198L0.06,-0.545L0.212,-0.545L0.212,-0.225C0.212,-0.193 0.221,-0.167 0.238,-0.149C0.255,-0.13 0.277,-0.121 0.306,-0.121C0.333,-0.121 0.358,-0.13 0.379,-0.149C0.4,-0.168 0.41,-0.196 0.41,-0.232Z" style="fill:rgb(29,30,50);fill-rule:nonzero;" class="YQVNLMkV_1"></path>
        </g>
        <g transform="matrix(67.4547,0,0,67.4547,470.225,207.361)">
            <path d="M0.307,0.011C0.251,0.011 0.203,-0.001 0.163,-0.025C0.123,-0.049 0.092,-0.082 0.07,-0.124C0.049,-0.167 0.038,-0.215 0.038,-0.271C0.038,-0.326 0.049,-0.376 0.071,-0.418C0.093,-0.46 0.123,-0.493 0.163,-0.517C0.203,-0.541 0.251,-0.553 0.306,-0.553C0.354,-0.553 0.395,-0.544 0.431,-0.527C0.467,-0.509 0.495,-0.485 0.516,-0.454C0.537,-0.423 0.548,-0.386 0.55,-0.344L0.408,-0.344C0.404,-0.371 0.393,-0.393 0.376,-0.41C0.359,-0.426 0.336,-0.435 0.309,-0.435C0.274,-0.435 0.245,-0.421 0.224,-0.392C0.203,-0.364 0.192,-0.324 0.192,-0.273C0.192,-0.221 0.203,-0.18 0.224,-0.152C0.245,-0.123 0.273,-0.109 0.309,-0.109C0.335,-0.109 0.357,-0.117 0.374,-0.133C0.392,-0.148 0.403,-0.171 0.408,-0.2L0.55,-0.2C0.548,-0.158 0.537,-0.122 0.517,-0.09C0.496,-0.058 0.468,-0.033 0.433,-0.016C0.397,0.002 0.355,0.011 0.307,0.011Z" style="fill:rgb(29,30,50);fill-rule:nonzero;" class="YQVNLMkV_2"></path>
        </g>
        <g transform="matrix(67.4547,0,0,67.4547,509.845,207.361)">
            <path d="M0.06,-0L0.06,-0.545L0.212,-0.545L0.212,-0L0.06,-0ZM0.136,-0.616C0.114,-0.616 0.095,-0.623 0.079,-0.638C0.063,-0.653 0.055,-0.671 0.055,-0.692C0.055,-0.714 0.063,-0.732 0.079,-0.746C0.095,-0.761 0.114,-0.769 0.136,-0.769C0.159,-0.769 0.178,-0.761 0.194,-0.746C0.21,-0.732 0.218,-0.714 0.218,-0.692C0.218,-0.671 0.21,-0.653 0.194,-0.638C0.178,-0.623 0.159,-0.616 0.136,-0.616Z" style="fill:rgb(29,30,50);fill-rule:nonzero;" class="YQVNLMkV_3"></path>
        </g>
        <g transform="matrix(67.4547,0,0,67.4547,528.194,207.361)">
            <path d="M0.216,0.01C0.164,0.01 0.121,-0.003 0.086,-0.031C0.052,-0.058 0.035,-0.098 0.035,-0.152C0.035,-0.193 0.044,-0.225 0.064,-0.248C0.083,-0.271 0.108,-0.288 0.139,-0.299C0.17,-0.31 0.204,-0.317 0.24,-0.32C0.287,-0.325 0.321,-0.33 0.341,-0.335C0.362,-0.34 0.372,-0.352 0.372,-0.369L0.372,-0.371C0.372,-0.394 0.365,-0.411 0.351,-0.424C0.337,-0.436 0.317,-0.442 0.291,-0.442C0.264,-0.442 0.242,-0.436 0.226,-0.424C0.21,-0.413 0.199,-0.397 0.194,-0.379L0.054,-0.391C0.064,-0.44 0.09,-0.48 0.132,-0.509C0.173,-0.538 0.226,-0.553 0.292,-0.553C0.332,-0.553 0.37,-0.546 0.405,-0.533C0.44,-0.521 0.469,-0.501 0.491,-0.474C0.512,-0.446 0.523,-0.411 0.523,-0.368L0.523,-0L0.38,-0L0.38,-0.076L0.375,-0.076C0.362,-0.05 0.342,-0.03 0.316,-0.014C0.289,0.002 0.256,0.01 0.216,0.01ZM0.259,-0.094C0.292,-0.094 0.32,-0.104 0.341,-0.123C0.362,-0.142 0.373,-0.166 0.373,-0.195L0.373,-0.253C0.367,-0.249 0.358,-0.245 0.345,-0.242C0.333,-0.239 0.32,-0.236 0.306,-0.234C0.291,-0.232 0.279,-0.23 0.268,-0.228C0.241,-0.225 0.22,-0.217 0.204,-0.206C0.187,-0.195 0.179,-0.179 0.179,-0.157C0.179,-0.136 0.187,-0.121 0.202,-0.11C0.217,-0.099 0.236,-0.094 0.259,-0.094Z" style="fill:rgb(29,30,50);fill-rule:nonzero;" class="YQVNLMkV_4"></path>
        </g>
    </g>
    <g transform="matrix(2.59592,0,0,2.59592,-711.017,-1085.93)">
        <g>
            <g transform="matrix(1,0,0,1,-166.277,7.69873)">
                <g>
                    <path d="M498.831,416L443.405,448L443.405,512L498.831,544L554.256,512L554.256,481L527,463.736L527,432.264L498.831,416Z" style="fill:rgb(116,96,225);fill-opacity:0;stroke:rgb(116,96,225);stroke-width:6.15px;" class="YQVNLMkV_5"></path>
                </g>
            </g>
            <g transform="matrix(1,0,0,1,-166.277,7.69873)">
                <g>
                    <path d="M498.831,416L443.405,448L443.405,512L498.831,544L554.256,512L554.256,481L527,463.736L527,432.264L498.831,416Z" style="fill:rgb(116,96,225);fill-opacity:0;stroke:rgb(116,96,225);stroke-width:6.15px;" class="YQVNLMkV_6"></path>
                </g>
            </g>
            <g transform="matrix(1,0,0,1,-166.277,7.69873)">
                <path d="M471,496.068L498.831,512" style="fill:none;stroke:rgb(116,96,225);stroke-width:6.15px;stroke-linejoin:miter;" class="YQVNLMkV_7"></path>
            </g>
            <g transform="matrix(1,0,0,1,-166.277,7.69873)">
                <path d="M471,463.932L471,496.068L527,463.736L554.256,481L498.831,513L498.831,544" style="fill:none;stroke:rgb(116,96,225);stroke-width:6.15px;" class="YQVNLMkV_8"></path>
            </g>
            <g transform="matrix(1,0,0,1,-166.277,7.69873)">
                <path d="M443.405,448L470.605,463.704L526.426,431.932" style="fill:none;stroke:rgb(116,96,225);stroke-width:6.15px;" class="YQVNLMkV_9"></path>
            </g>
        </g>
    </g>
<style data-made-with="vivus-instant">.YQVNLMkV_0{stroke-dasharray:3 5;stroke-dashoffset:4;animation:YQVNLMkV_draw_0 7500ms ease-out 0ms infinite,YQVNLMkV_fade 7500ms linear 0ms infinite;}.YQVNLMkV_1{stroke-dasharray:3 5;stroke-dashoffset:4;animation:YQVNLMkV_draw_1 7500ms ease-out 0ms infinite,YQVNLMkV_fade 7500ms linear 0ms infinite;}.YQVNLMkV_2{stroke-dasharray:3 5;stroke-dashoffset:4;animation:YQVNLMkV_draw_2 7500ms ease-out 0ms infinite,YQVNLMkV_fade 7500ms linear 0ms infinite;}.YQVNLMkV_3{stroke-dasharray:2 4;stroke-dashoffset:3;animation:YQVNLMkV_draw_3 7500ms ease-out 0ms infinite,YQVNLMkV_fade 7500ms linear 0ms infinite;}.YQVNLMkV_4{stroke-dasharray:4 6;stroke-dashoffset:5;animation:YQVNLMkV_draw_4 7500ms ease-out 0ms infinite,YQVNLMkV_fade 7500ms linear 0ms infinite;}.YQVNLMkV_5{stroke-dasharray:384 386;stroke-dashoffset:385;animation:YQVNLMkV_draw_5 7500ms ease-out 0ms infinite,YQVNLMkV_fade 7500ms linear 0ms infinite;}.YQVNLMkV_6{stroke-dasharray:384 386;stroke-dashoffset:385;animation:YQVNLMkV_draw_6 7500ms ease-out 0ms infinite,YQVNLMkV_fade 7500ms linear 0ms infinite;}.YQVNLMkV_7{stroke-dasharray:33 35;stroke-dashoffset:34;animation:YQVNLMkV_draw_7 7500ms ease-out 0ms infinite,YQVNLMkV_fade 7500ms linear 0ms infinite;}.YQVNLMkV_8{stroke-dasharray:225 227;stroke-dashoffset:226;animation:YQVNLMkV_draw_8 7500ms ease-out 0ms infinite,YQVNLMkV_fade 7500ms linear 0ms infinite;}.YQVNLMkV_9{stroke-dasharray:96 98;stroke-dashoffset:97;animation:YQVNLMkV_draw_9 7500ms ease-out 0ms infinite,YQVNLMkV_fade 7500ms linear 0ms infinite;}@keyframes YQVNLMkV_draw{100%{stroke-dashoffset:0;}}@keyframes YQVNLMkV_fade{0%{stroke-opacity:1;}93.33333333333333%{stroke-opacity:1;}100%{stroke-opacity:0;}}@keyframes YQVNLMkV_draw_0{6.666666666666667%{stroke-dashoffset: 4}33.33333333333333%{ stroke-dashoffset: 0;}100%{ stroke-dashoffset: 0;}}@keyframes YQVNLMkV_draw_1{8.148148148148147%{stroke-dashoffset: 4}34.81481481481482%{ stroke-dashoffset: 0;}100%{ stroke-dashoffset: 0;}}@keyframes YQVNLMkV_draw_2{9.629629629629628%{stroke-dashoffset: 4}36.29629629629629%{ stroke-dashoffset: 0;}100%{ stroke-dashoffset: 0;}}@keyframes YQVNLMkV_draw_3{11.111111111111112%{stroke-dashoffset: 3}37.777777777777786%{ stroke-dashoffset: 0;}100%{ stroke-dashoffset: 0;}}@keyframes YQVNLMkV_draw_4{12.592592592592593%{stroke-dashoffset: 5}39.25925925925926%{ stroke-dashoffset: 0;}100%{ stroke-dashoffset: 0;}}@keyframes YQVNLMkV_draw_5{14.074074074074074%{stroke-dashoffset: 385}40.74074074074075%{ stroke-dashoffset: 0;}100%{ stroke-dashoffset: 0;}}@keyframes YQVNLMkV_draw_6{15.555555555555555%{stroke-dashoffset: 385}42.22222222222223%{ stroke-dashoffset: 0;}100%{ stroke-dashoffset: 0;}}@keyframes YQVNLMkV_draw_7{17.037037037037038%{stroke-dashoffset: 34}43.7037037037037%{ stroke-dashoffset: 0;}100%{ stroke-dashoffset: 0;}}@keyframes YQVNLMkV_draw_8{18.51851851851852%{stroke-dashoffset: 226}45.18518518518518%{ stroke-dashoffset: 0;}100%{ stroke-dashoffset: 0;}}@keyframes YQVNLMkV_draw_9{20%{stroke-dashoffset: 97}46.666666666666664%{ stroke-dashoffset: 0;}100%{ stroke-dashoffset: 0;}}</style></svg>
