<?xml version="1.0" encoding="UTF-8" standalone="no"?>
<!DOCTYPE svg PUBLIC "-//W3C//DTD SVG 1.1//EN" "http://www.w3.org/Graphics/SVG/1.1/DTD/svg11.dtd">
<svg width="100%" height="100%" viewBox="0 0 2500 2500" version="1.1" xmlns="http://www.w3.org/2000/svg" xmlns:xlink="http://www.w3.org/1999/xlink" xml:space="preserve" xmlns:serif="http://www.serif.com/" style="fill-rule:evenodd;clip-rule:evenodd;stroke-linejoin:round;stroke-miterlimit:2;">
    <g transform="matrix(1.84502,0,0,1.84502,-7405.98,-1328.34)">
        <g transform="matrix(0.782333,0,0,0.782333,3860.75,300.629)">
            <path d="M195.943,1362.32C216.645,902.766 596.329,536 1061,536C1538.96,536 1927,924.042 1927,1402C1927,1879.96 1538.96,2268 1061,2268C941.463,2268 827.55,2243.73 723.963,2199.86L1086.13,1877.27C1161.85,1825.65 1231.35,1764.59 1311.88,1725.68C1511.95,1629.02 1641.87,1527.1 1620.18,1435.76C1620.18,1435.76 1548.56,1435.76 1510.46,1435.76C1504.3,1435.76 1498.4,1433.32 1494.05,1428.96C1489.69,1424.61 1487.25,1418.71 1487.25,1412.55C1487.25,1412.55 1487.25,1412.55 1487.25,1412.55C1487.25,1406.39 1489.69,1400.49 1494.05,1396.14C1498.4,1391.79 1504.3,1389.34 1510.46,1389.34L1620.18,1389.34C1574.81,1284.64 1478.7,1239.75 1361.69,1219.47L1361.54,1219.39C1361.64,1216.61 1361.69,1213.83 1361.69,1211.03C1361.69,1090.5 1263.83,992.635 1143.3,992.635C1141.05,992.635 1138.82,992.669 1136.61,992.736C1105.84,954.714 1058.81,930.386 1006.14,930.386C949.835,930.386 899.974,958.182 869.533,1000.8C855.935,995.526 841.163,992.635 825.72,992.635C763.724,992.635 712.525,1039.23 705.269,1099.29C699.802,1098.53 694.227,1098.14 688.562,1098.14C621.597,1098.14 567.229,1152.51 567.229,1219.47C567.229,1221.01 567.258,1222.53 567.315,1224.06L195.943,1362.32Z"/>
        </g>
        <g transform="matrix(0.782333,0,0,0.782333,3860.75,300.629)">
            <path d="M672.736,1456.86L702.278,1602.46C596.477,1579.98 505.479,1532.82 427.961,1463.19C511.013,1492.25 592.826,1494.85 672.736,1456.86Z"/>
        </g>
        <g transform="matrix(0.782333,0,0,0.782333,3860.75,300.629)">
            <circle cx="1126.41" cy="1336.59" r="65.414"/>
        </g>
        <g transform="matrix(0.782333,0,0,0.782333,3860.75,300.629)">
            <path d="M1713.72,1259.55C1725.54,1257.62 1733.58,1246.46 1731.65,1234.64C1729.73,1222.83 1718.57,1214.79 1706.75,1216.71L1637.06,1228.06C1625.24,1229.98 1617.21,1241.14 1619.13,1252.96C1621.06,1264.78 1632.21,1272.81 1644.03,1270.89L1713.72,1259.55Z"/>
        </g>
        <g transform="matrix(0.782333,0,0,0.782333,3860.75,300.629)">
            <path d="M1681.07,1075.83C1689.54,1067.36 1703.29,1067.36 1711.76,1075.83C1720.22,1084.29 1720.22,1098.04 1711.76,1106.51L1608.19,1210.08C1599.72,1218.55 1585.97,1218.55 1577.5,1210.08C1569.03,1201.61 1569.03,1187.86 1577.5,1179.39L1681.07,1075.83Z"/>
        </g>
        <g transform="matrix(0.782333,0,0,0.782333,3860.75,300.629)">
            <path d="M1524.77,1078.78C1526.7,1066.95 1537.85,1058.92 1549.67,1060.85C1561.49,1062.77 1569.53,1073.93 1567.6,1085.75L1556.26,1155.43C1554.34,1167.25 1543.18,1175.29 1531.36,1173.36C1519.54,1171.44 1511.51,1160.28 1513.43,1148.46L1524.77,1078.78Z"/>
        </g>
        <g transform="matrix(1.65082,0,0,1.65082,-2947.56,-913.694)">
            <path d="M4443,1426L4457,1495C4406.86,1484.34 4363.74,1462 4327,1429C4366.36,1442.77 4405.13,1444 4443,1426Z"/>
        </g>
        <g transform="matrix(1.65082,0,0,1.65082,-2947.56,-913.694)">
            <circle cx="4658" cy="1369" r="31"/>
        </g>
    </g>
</svg>
