<?xml version="1.0" encoding="UTF-8" standalone="no"?>
<!DOCTYPE svg PUBLIC "-//W3C//DTD SVG 1.1//EN" "http://www.w3.org/Graphics/SVG/1.1/DTD/svg11.dtd">
<svg width="100%" height="100%" viewBox="0 0 1000 355" version="1.1" xmlns="http://www.w3.org/2000/svg" xmlns:xlink="http://www.w3.org/1999/xlink" xml:space="preserve" xmlns:serif="http://www.serif.com/" style="fill-rule:evenodd;clip-rule:evenodd;stroke-linecap:round;stroke-linejoin:round;stroke-miterlimit:1.5;">
    <g transform="matrix(3.51526,0,0,3.51526,-983.774,-476.082)">
        <text x="390.003px" y="207.361px" style="font-family:'Inter-Bold', 'Inter';font-weight:700;font-size:67.455px;fill:rgb(29,30,50);">Lucia</text>
    </g>
    <g transform="matrix(2.59592,0,0,2.59592,-711.017,-1085.93)">
        <g>
            <g transform="matrix(1,0,0,1,-166.277,7.69873)">
                <g>
                    <path d="M498.831,416L443.405,448L443.405,512L498.831,544L554.256,512L554.256,481L527,463.736L527,432.264L498.831,416Z" style="fill:rgb(116,96,225);fill-opacity:0;stroke:rgb(116,96,225);stroke-width:6.15px;"/>
                </g>
            </g>
            <g transform="matrix(1,0,0,1,-166.277,7.69873)">
                <g>
                    <path d="M498.831,416L443.405,448L443.405,512L498.831,544L554.256,512L554.256,481L527,463.736L527,432.264L498.831,416Z" style="fill:rgb(116,96,225);fill-opacity:0;stroke:rgb(116,96,225);stroke-width:6.15px;"/>
                </g>
            </g>
            <g transform="matrix(1,0,0,1,-166.277,7.69873)">
                <path d="M471,496.068L498.831,512" style="fill:none;stroke:rgb(116,96,225);stroke-width:6.15px;stroke-linejoin:miter;"/>
            </g>
            <g transform="matrix(1,0,0,1,-166.277,7.69873)">
                <path d="M471,463.932L471,496.068L527,463.736L554.256,481L498.831,513L498.831,544" style="fill:none;stroke:rgb(116,96,225);stroke-width:6.15px;"/>
            </g>
            <g transform="matrix(1,0,0,1,-166.277,7.69873)">
                <path d="M443.405,448L470.605,463.704L526.426,431.932" style="fill:none;stroke:rgb(116,96,225);stroke-width:6.15px;"/>
            </g>
        </g>
    </g>
</svg>
