<?xml version="1.0" encoding="UTF-8" standalone="no"?>
<!DOCTYPE svg PUBLIC "-//W3C//DTD SVG 1.1//EN" "http://www.w3.org/Graphics/SVG/1.1/DTD/svg11.dtd">
<svg width="100%" height="100%" viewBox="0 0 8000 2500" version="1.1" xmlns="http://www.w3.org/2000/svg" xmlns:xlink="http://www.w3.org/1999/xlink" xml:space="preserve" xmlns:serif="http://www.serif.com/" style="fill-rule:evenodd;clip-rule:evenodd;stroke-linejoin:round;stroke-miterlimit:2;">
    <g transform="matrix(1.84502,0,0,1.84502,-1112.59,-920.664)">
        <g transform="matrix(30.9112,0,0,30.9112,-38569.1,-34999.2)">
            <g transform="matrix(50,0,0,50,1320.86,1186.76)">
                <path d="M0.294,-0.216C0.298,-0.223 0.303,-0.227 0.31,-0.227C0.315,-0.227 0.32,-0.225 0.323,-0.222C0.326,-0.218 0.327,-0.213 0.324,-0.207C0.305,-0.16 0.283,-0.118 0.26,-0.08C0.235,-0.039 0.206,-0.019 0.171,-0.019C0.149,-0.019 0.128,-0.027 0.107,-0.042C0.086,-0.057 0.067,-0.075 0.051,-0.096C0.03,-0.125 0.019,-0.161 0.019,-0.204C0.019,-0.248 0.024,-0.294 0.034,-0.342C0.045,-0.39 0.057,-0.438 0.068,-0.486C0.079,-0.534 0.097,-0.579 0.122,-0.621C0.129,-0.633 0.14,-0.643 0.155,-0.652C0.169,-0.66 0.183,-0.664 0.198,-0.664C0.213,-0.664 0.224,-0.66 0.233,-0.652C0.257,-0.626 0.268,-0.593 0.267,-0.554C0.266,-0.515 0.255,-0.48 0.235,-0.45C0.222,-0.429 0.207,-0.41 0.19,-0.394C0.172,-0.377 0.155,-0.36 0.139,-0.343C0.13,-0.306 0.124,-0.269 0.123,-0.231C0.121,-0.192 0.125,-0.155 0.136,-0.119C0.139,-0.108 0.146,-0.096 0.155,-0.084C0.164,-0.072 0.175,-0.066 0.188,-0.066C0.199,-0.066 0.21,-0.072 0.221,-0.083C0.238,-0.1 0.252,-0.122 0.264,-0.148C0.275,-0.174 0.285,-0.197 0.294,-0.216ZM0.2,-0.614C0.189,-0.578 0.18,-0.542 0.173,-0.504C0.166,-0.468 0.159,-0.431 0.151,-0.394C0.172,-0.419 0.191,-0.448 0.208,-0.481C0.225,-0.513 0.229,-0.547 0.221,-0.582C0.218,-0.587 0.215,-0.594 0.214,-0.602C0.213,-0.61 0.209,-0.614 0.203,-0.614L0.2,-0.614Z" style="fill-rule:nonzero;"/>
            </g>
            <g transform="matrix(50,0,0,50,1333.66,1186.76)">
                <path d="M0.224,-0.151C0.225,-0.153 0.225,-0.156 0.225,-0.16C0.228,-0.191 0.233,-0.225 0.24,-0.262C0.247,-0.298 0.257,-0.33 0.268,-0.358C0.271,-0.369 0.278,-0.377 0.289,-0.382C0.299,-0.387 0.31,-0.389 0.321,-0.389C0.336,-0.389 0.348,-0.385 0.36,-0.377C0.371,-0.368 0.374,-0.356 0.369,-0.339C0.367,-0.319 0.363,-0.292 0.357,-0.259C0.351,-0.226 0.346,-0.193 0.342,-0.161C0.337,-0.128 0.335,-0.1 0.336,-0.077C0.337,-0.054 0.343,-0.042 0.354,-0.042C0.362,-0.042 0.371,-0.049 0.381,-0.062C0.391,-0.075 0.401,-0.09 0.41,-0.107C0.419,-0.124 0.428,-0.14 0.435,-0.157C0.442,-0.174 0.447,-0.185 0.45,-0.192C0.453,-0.198 0.458,-0.201 0.463,-0.201C0.468,-0.201 0.473,-0.199 0.477,-0.194C0.482,-0.189 0.482,-0.182 0.479,-0.175C0.475,-0.166 0.469,-0.152 0.461,-0.134C0.452,-0.115 0.443,-0.097 0.433,-0.078C0.422,-0.059 0.411,-0.043 0.4,-0.028C0.388,-0.013 0.377,-0.003 0.367,-0C0.353,0.004 0.34,0.006 0.327,0.006C0.3,0.006 0.278,-0.003 0.262,-0.021C0.245,-0.038 0.234,-0.061 0.229,-0.088C0.226,-0.084 0.222,-0.077 0.217,-0.068C0.21,-0.058 0.203,-0.047 0.195,-0.035C0.186,-0.024 0.176,-0.016 0.164,-0.012C0.159,-0.011 0.154,-0.01 0.151,-0.01C0.136,-0.01 0.12,-0.016 0.103,-0.027C0.087,-0.038 0.075,-0.048 0.066,-0.058C0.034,-0.094 0.019,-0.135 0.02,-0.181C0.021,-0.209 0.026,-0.239 0.035,-0.271C0.043,-0.303 0.053,-0.332 0.064,-0.357C0.067,-0.368 0.074,-0.376 0.084,-0.381C0.094,-0.386 0.105,-0.388 0.116,-0.388C0.13,-0.388 0.142,-0.384 0.154,-0.376C0.165,-0.367 0.168,-0.355 0.163,-0.338C0.161,-0.318 0.157,-0.292 0.152,-0.259C0.146,-0.226 0.141,-0.193 0.137,-0.162C0.132,-0.13 0.13,-0.102 0.131,-0.08C0.132,-0.057 0.137,-0.045 0.148,-0.045C0.155,-0.045 0.162,-0.05 0.17,-0.059C0.178,-0.068 0.186,-0.078 0.193,-0.09C0.2,-0.102 0.206,-0.114 0.212,-0.126C0.217,-0.137 0.221,-0.146 0.224,-0.151Z" style="fill-rule:nonzero;"/>
            </g>
            <g transform="matrix(50,0,0,50,1354.86,1186.76)">
                <path d="M0.333,-0.19C0.336,-0.195 0.34,-0.198 0.345,-0.198C0.35,-0.198 0.355,-0.196 0.36,-0.191C0.364,-0.186 0.364,-0.18 0.361,-0.174C0.352,-0.157 0.343,-0.14 0.332,-0.122C0.321,-0.103 0.308,-0.086 0.294,-0.071C0.28,-0.057 0.264,-0.044 0.247,-0.035C0.23,-0.025 0.21,-0.02 0.189,-0.02C0.156,-0.02 0.127,-0.027 0.1,-0.04C0.073,-0.053 0.052,-0.075 0.037,-0.105C0.02,-0.139 0.015,-0.174 0.024,-0.212C0.032,-0.249 0.046,-0.282 0.065,-0.312C0.091,-0.353 0.128,-0.374 0.176,-0.374C0.19,-0.374 0.203,-0.372 0.214,-0.367C0.235,-0.36 0.249,-0.345 0.258,-0.324C0.267,-0.303 0.27,-0.282 0.268,-0.261C0.268,-0.248 0.261,-0.241 0.246,-0.241C0.235,-0.241 0.229,-0.245 0.228,-0.254C0.227,-0.265 0.224,-0.281 0.22,-0.3C0.215,-0.319 0.205,-0.328 0.19,-0.328C0.18,-0.328 0.173,-0.325 0.169,-0.318C0.153,-0.291 0.141,-0.262 0.134,-0.231C0.127,-0.2 0.125,-0.169 0.128,-0.138C0.131,-0.115 0.138,-0.095 0.149,-0.079C0.16,-0.062 0.174,-0.054 0.193,-0.054C0.208,-0.054 0.223,-0.059 0.237,-0.069C0.252,-0.078 0.265,-0.09 0.277,-0.104C0.289,-0.118 0.3,-0.133 0.31,-0.149C0.319,-0.164 0.327,-0.178 0.333,-0.19Z" style="fill-rule:nonzero;"/>
            </g>
            <g transform="matrix(50,0,0,50,1370.41,1186.76)">
                <path d="M0.168,-0.444C0.156,-0.436 0.142,-0.432 0.127,-0.432C0.108,-0.432 0.092,-0.439 0.08,-0.452C0.079,-0.468 0.079,-0.485 0.081,-0.502C0.082,-0.52 0.088,-0.536 0.097,-0.549C0.109,-0.554 0.121,-0.557 0.132,-0.557C0.144,-0.557 0.156,-0.554 0.168,-0.549C0.179,-0.534 0.185,-0.516 0.185,-0.497C0.184,-0.477 0.179,-0.459 0.168,-0.444ZM0.244,-0.193C0.247,-0.199 0.251,-0.202 0.256,-0.202C0.261,-0.202 0.266,-0.2 0.271,-0.195C0.275,-0.19 0.275,-0.183 0.272,-0.176C0.264,-0.158 0.256,-0.14 0.247,-0.122C0.238,-0.103 0.228,-0.085 0.217,-0.068C0.21,-0.058 0.203,-0.047 0.195,-0.035C0.186,-0.024 0.176,-0.016 0.164,-0.012C0.159,-0.011 0.154,-0.01 0.151,-0.01C0.136,-0.01 0.12,-0.016 0.103,-0.027C0.087,-0.038 0.075,-0.048 0.066,-0.058C0.034,-0.094 0.019,-0.135 0.021,-0.181C0.022,-0.209 0.027,-0.239 0.035,-0.271C0.043,-0.303 0.053,-0.332 0.064,-0.357C0.067,-0.368 0.074,-0.376 0.084,-0.381C0.094,-0.386 0.105,-0.388 0.116,-0.388C0.13,-0.388 0.142,-0.384 0.154,-0.376C0.165,-0.367 0.168,-0.355 0.163,-0.338C0.161,-0.318 0.157,-0.292 0.152,-0.259C0.146,-0.226 0.141,-0.193 0.137,-0.162C0.132,-0.13 0.13,-0.102 0.131,-0.08C0.132,-0.057 0.138,-0.045 0.149,-0.045C0.153,-0.045 0.158,-0.047 0.164,-0.051C0.167,-0.054 0.171,-0.058 0.175,-0.064C0.179,-0.07 0.183,-0.075 0.186,-0.079C0.197,-0.097 0.207,-0.116 0.217,-0.135C0.226,-0.154 0.235,-0.174 0.244,-0.193Z" style="fill-rule:nonzero;"/>
            </g>
            <g transform="matrix(50,0,0,50,1381.21,1186.76)">
                <path d="M0.426,-0.182C0.429,-0.188 0.434,-0.191 0.439,-0.191C0.444,-0.191 0.449,-0.189 0.453,-0.184C0.457,-0.179 0.457,-0.173 0.454,-0.166C0.441,-0.139 0.428,-0.111 0.413,-0.081C0.399,-0.051 0.376,-0.032 0.344,-0.025C0.339,-0.024 0.333,-0.023 0.326,-0.023C0.311,-0.023 0.292,-0.027 0.27,-0.035C0.247,-0.043 0.231,-0.061 0.22,-0.089C0.211,-0.078 0.201,-0.066 0.19,-0.055C0.179,-0.043 0.166,-0.036 0.151,-0.033C0.142,-0.032 0.135,-0.031 0.131,-0.031C0.108,-0.031 0.087,-0.038 0.067,-0.052C0.047,-0.066 0.034,-0.084 0.027,-0.105C0.018,-0.137 0.015,-0.17 0.019,-0.204C0.022,-0.239 0.031,-0.271 0.046,-0.301C0.059,-0.329 0.078,-0.352 0.102,-0.369C0.126,-0.386 0.154,-0.395 0.185,-0.395C0.201,-0.395 0.215,-0.39 0.226,-0.379C0.236,-0.368 0.247,-0.357 0.257,-0.346C0.258,-0.371 0.273,-0.383 0.3,-0.383C0.314,-0.382 0.324,-0.378 0.331,-0.371C0.337,-0.364 0.34,-0.357 0.339,-0.349C0.338,-0.337 0.336,-0.321 0.333,-0.301C0.329,-0.281 0.325,-0.26 0.322,-0.236C0.318,-0.214 0.315,-0.19 0.312,-0.166C0.309,-0.141 0.307,-0.118 0.307,-0.097C0.308,-0.088 0.309,-0.08 0.311,-0.072C0.313,-0.064 0.318,-0.059 0.326,-0.058C0.344,-0.058 0.359,-0.065 0.372,-0.078C0.385,-0.092 0.396,-0.109 0.403,-0.128C0.41,-0.147 0.418,-0.165 0.426,-0.182ZM0.216,-0.185C0.219,-0.206 0.222,-0.228 0.226,-0.249C0.23,-0.27 0.228,-0.292 0.221,-0.313C0.218,-0.326 0.211,-0.338 0.2,-0.351C0.196,-0.356 0.19,-0.359 0.182,-0.359C0.175,-0.359 0.169,-0.356 0.164,-0.35C0.151,-0.332 0.142,-0.316 0.137,-0.302C0.126,-0.27 0.12,-0.237 0.117,-0.203C0.114,-0.168 0.118,-0.135 0.128,-0.102C0.131,-0.091 0.139,-0.086 0.15,-0.086C0.156,-0.086 0.161,-0.088 0.166,-0.093C0.179,-0.106 0.191,-0.12 0.201,-0.135C0.21,-0.149 0.215,-0.166 0.216,-0.185Z" style="fill-rule:nonzero;"/>
            </g>
        </g>
        <g transform="matrix(1,0,0,1,-3303,-220.959)">
            <g transform="matrix(0.782333,0,0,0.782333,3860.75,300.629)">
                <path d="M195.943,1362.32C216.645,902.766 596.329,536 1061,536C1538.96,536 1927,924.042 1927,1402C1927,1879.96 1538.96,2268 1061,2268C941.463,2268 827.55,2243.73 723.963,2199.86L1086.13,1877.27C1161.85,1825.65 1231.35,1764.59 1311.88,1725.68C1511.95,1629.02 1641.87,1527.1 1620.18,1435.76C1620.18,1435.76 1548.56,1435.76 1510.46,1435.76C1504.3,1435.76 1498.4,1433.32 1494.05,1428.96C1489.69,1424.61 1487.25,1418.71 1487.25,1412.55C1487.25,1412.55 1487.25,1412.55 1487.25,1412.55C1487.25,1406.39 1489.69,1400.49 1494.05,1396.14C1498.4,1391.79 1504.3,1389.34 1510.46,1389.34L1620.18,1389.34C1574.81,1284.64 1478.7,1239.75 1361.69,1219.47L1361.54,1219.39C1361.64,1216.61 1361.69,1213.83 1361.69,1211.03C1361.69,1090.5 1263.83,992.635 1143.3,992.635C1141.05,992.635 1138.82,992.669 1136.61,992.736C1105.84,954.714 1058.81,930.386 1006.14,930.386C949.835,930.386 899.974,958.182 869.533,1000.8C855.935,995.526 841.163,992.635 825.72,992.635C763.724,992.635 712.525,1039.23 705.269,1099.29C699.802,1098.53 694.227,1098.14 688.562,1098.14C621.597,1098.14 567.229,1152.51 567.229,1219.47C567.229,1221.01 567.258,1222.53 567.315,1224.06L195.943,1362.32Z"/>
            </g>
            <g transform="matrix(0.782333,0,0,0.782333,3860.75,300.629)">
                <path d="M672.736,1456.86L702.278,1602.46C596.477,1579.98 505.479,1532.82 427.961,1463.19C511.013,1492.25 592.826,1494.85 672.736,1456.86Z"/>
            </g>
            <g transform="matrix(0.782333,0,0,0.782333,3860.75,300.629)">
                <circle cx="1126.41" cy="1336.59" r="65.414"/>
            </g>
            <g transform="matrix(0.782333,0,0,0.782333,3860.75,300.629)">
                <path d="M1713.72,1259.55C1725.54,1257.62 1733.58,1246.46 1731.65,1234.64C1729.73,1222.83 1718.57,1214.79 1706.75,1216.71L1637.06,1228.06C1625.24,1229.98 1617.21,1241.14 1619.13,1252.96C1621.06,1264.78 1632.21,1272.81 1644.03,1270.89L1713.72,1259.55Z"/>
            </g>
            <g transform="matrix(0.782333,0,0,0.782333,3860.75,300.629)">
                <path d="M1681.07,1075.83C1689.54,1067.36 1703.29,1067.36 1711.76,1075.83C1720.22,1084.29 1720.22,1098.04 1711.76,1106.51L1608.19,1210.08C1599.72,1218.55 1585.97,1218.55 1577.5,1210.08C1569.03,1201.61 1569.03,1187.86 1577.5,1179.39L1681.07,1075.83Z"/>
            </g>
            <g transform="matrix(0.782333,0,0,0.782333,3860.75,300.629)">
                <path d="M1524.77,1078.78C1526.7,1066.95 1537.85,1058.92 1549.67,1060.85C1561.49,1062.77 1569.53,1073.93 1567.6,1085.75L1556.26,1155.43C1554.34,1167.25 1543.18,1175.29 1531.36,1173.36C1519.54,1171.44 1511.51,1160.28 1513.43,1148.46L1524.77,1078.78Z"/>
            </g>
            <g transform="matrix(1.65082,0,0,1.65082,-2947.56,-913.694)">
                <path d="M4443,1426L4457,1495C4406.86,1484.34 4363.74,1462 4327,1429C4366.36,1442.77 4405.13,1444 4443,1426Z"/>
            </g>
            <g transform="matrix(1.65082,0,0,1.65082,-2947.56,-913.694)">
                <circle cx="4658" cy="1369" r="31"/>
            </g>
        </g>
    </g>
</svg>
